<?xml version="1.0" encoding="UTF-8" standalone="no"?>
<!DOCTYPE svg PUBLIC "-//W3C//DTD SVG 1.1//EN"
 "http://www.w3.org/Graphics/SVG/1.1/DTD/svg11.dtd">
<!-- Generated by graphviz version 2.42.4 (0)
 -->
<!-- Title: G Pages: 1 -->
<svg width="576pt" height="242pt"
 viewBox="0.00 0.00 575.82 242.32" xmlns="http://www.w3.org/2000/svg" xmlns:xlink="http://www.w3.org/1999/xlink">
<g id="graph0" class="graph" transform="scale(1 1) rotate(0) translate(20.16 222.16)">
<title>G</title>
<!-- Platform -->
<g id="node1" class="node">
<title>Platform</title>
<path fill="#eaf3ff" stroke="#a5c6e8" d="M280.5,-202C280.5,-202 224.5,-202 224.5,-202 218.5,-202 212.5,-196 212.5,-190 212.5,-190 212.5,-178 212.5,-178 212.5,-172 218.5,-166 224.5,-166 224.5,-166 280.5,-166 280.5,-166 286.5,-166 292.5,-172 292.5,-178 292.5,-178 292.5,-190 292.5,-190 292.5,-196 286.5,-202 280.5,-202"/>
<text text-anchor="middle" x="252.5" y="-180.6" font-family="DejaVu Sans" font-size="13.00">Platform</text>
</g>
<!-- Seller A -->
<g id="node2" class="node">
<title>Seller A</title>
<path fill="#eaf3ff" stroke="#a5c6e8" d="M207.5,-119C207.5,-119 155.5,-119 155.5,-119 149.5,-119 143.5,-113 143.5,-107 143.5,-107 143.5,-95 143.5,-95 143.5,-89 149.5,-83 155.5,-83 155.5,-83 207.5,-83 207.5,-83 213.5,-83 219.5,-89 219.5,-95 219.5,-95 219.5,-107 219.5,-107 219.5,-113 213.5,-119 207.5,-119"/>
<text text-anchor="middle" x="181.5" y="-97.6" font-family="DejaVu Sans" font-size="13.00">Seller A</text>
</g>
<!-- Platform&#45;&gt;Seller A -->
<g id="edge1" class="edge">
<title>Platform&#45;&gt;Seller A</title>
<path fill="none" stroke="#6287a3" stroke-width="1.5" d="M216,-165.99C216,-165.99 216,-126.26 216,-126.26"/>
<polygon fill="#6287a3" stroke="#6287a3" stroke-width="1.5" points="218.45,-126.26 216,-119.26 213.55,-126.26 218.45,-126.26"/>
</g>
<!-- Seller B -->
<g id="node3" class="node">
<title>Seller B</title>
<path fill="#eaf3ff" stroke="#a5c6e8" d="M349.5,-119C349.5,-119 297.5,-119 297.5,-119 291.5,-119 285.5,-113 285.5,-107 285.5,-107 285.5,-95 285.5,-95 285.5,-89 291.5,-83 297.5,-83 297.5,-83 349.5,-83 349.5,-83 355.5,-83 361.5,-89 361.5,-95 361.5,-95 361.5,-107 361.5,-107 361.5,-113 355.5,-119 349.5,-119"/>
<text text-anchor="middle" x="323.5" y="-97.6" font-family="DejaVu Sans" font-size="13.00">Seller B</text>
</g>
<!-- Platform&#45;&gt;Seller B -->
<g id="edge2" class="edge">
<title>Platform&#45;&gt;Seller B</title>
<path fill="none" stroke="#6287a3" stroke-width="1.5" d="M289,-165.99C289,-165.99 289,-126.26 289,-126.26"/>
<polygon fill="#6287a3" stroke="#6287a3" stroke-width="1.5" points="291.45,-126.26 289,-119.26 286.55,-126.26 291.45,-126.26"/>
</g>
<!-- A: Users -->
<g id="node4" class="node">
<title>A: Users</title>
<path fill="#eaf3ff" stroke="#a5c6e8" d="M67,-36C67,-36 12,-36 12,-36 6,-36 0,-30 0,-24 0,-24 0,-12 0,-12 0,-6 6,0 12,0 12,0 67,0 67,0 73,0 79,-6 79,-12 79,-12 79,-24 79,-24 79,-30 73,-36 67,-36"/>
<text text-anchor="middle" x="39.5" y="-14.6" font-family="DejaVu Sans" font-size="13.00">A: Users</text>
</g>
<!-- Seller A&#45;&gt;A: Users -->
<g id="edge3" class="edge">
<title>Seller A&#45;&gt;A: Users</title>
<path fill="none" stroke="#6287a3" stroke-width="1.5" d="M143.45,-101C101.38,-101 39.5,-101 39.5,-101 39.5,-101 39.5,-43.01 39.5,-43.01"/>
<polygon fill="#6287a3" stroke="#6287a3" stroke-width="1.5" points="41.95,-43.01 39.5,-36.01 37.05,-43.01 41.95,-43.01"/>
</g>
<!-- A: Offers / Orders -->
<g id="node5" class="node">
<title>A: Offers / Orders</title>
<path fill="#eaf3ff" stroke="#a5c6e8" d="M239.5,-36C239.5,-36 123.5,-36 123.5,-36 117.5,-36 111.5,-30 111.5,-24 111.5,-24 111.5,-12 111.5,-12 111.5,-6 117.5,0 123.5,0 123.5,0 239.5,0 239.5,0 245.5,0 251.5,-6 251.5,-12 251.5,-12 251.5,-24 251.5,-24 251.5,-30 245.5,-36 239.5,-36"/>
<text text-anchor="middle" x="181.5" y="-14.6" font-family="DejaVu Sans" font-size="13.00">A: Offers / Orders</text>
</g>
<!-- Seller A&#45;&gt;A: Offers / Orders -->
<g id="edge4" class="edge">
<title>Seller A&#45;&gt;A: Offers / Orders</title>
<path fill="none" stroke="#6287a3" stroke-width="1.5" d="M181.5,-82.99C181.5,-82.99 181.5,-43.26 181.5,-43.26"/>
<polygon fill="#6287a3" stroke="#6287a3" stroke-width="1.5" points="183.95,-43.26 181.5,-36.26 179.05,-43.26 183.95,-43.26"/>
</g>
<!-- B: Users -->
<g id="node6" class="node">
<title>B: Users</title>
<path fill="#eaf3ff" stroke="#a5c6e8" d="M351,-36C351,-36 296,-36 296,-36 290,-36 284,-30 284,-24 284,-24 284,-12 284,-12 284,-6 290,0 296,0 296,0 351,0 351,0 357,0 363,-6 363,-12 363,-12 363,-24 363,-24 363,-30 357,-36 351,-36"/>
<text text-anchor="middle" x="323.5" y="-14.6" font-family="DejaVu Sans" font-size="13.00">B: Users</text>
</g>
<!-- Seller B&#45;&gt;B: Users -->
<g id="edge5" class="edge">
<title>Seller B&#45;&gt;B: Users</title>
<path fill="none" stroke="#6287a3" stroke-width="1.5" d="M323.5,-82.99C323.5,-82.99 323.5,-43.26 323.5,-43.26"/>
<polygon fill="#6287a3" stroke="#6287a3" stroke-width="1.5" points="325.95,-43.26 323.5,-36.26 321.05,-43.26 325.95,-43.26"/>
</g>
<!-- B: Offers / Orders -->
<g id="node7" class="node">
<title>B: Offers / Orders</title>
<path fill="#eaf3ff" stroke="#a5c6e8" d="M523.5,-36C523.5,-36 407.5,-36 407.5,-36 401.5,-36 395.5,-30 395.5,-24 395.5,-24 395.5,-12 395.5,-12 395.5,-6 401.5,0 407.5,0 407.5,0 523.5,0 523.5,0 529.5,0 535.5,-6 535.5,-12 535.5,-12 535.5,-24 535.5,-24 535.5,-30 529.5,-36 523.5,-36"/>
<text text-anchor="middle" x="465.5" y="-14.6" font-family="DejaVu Sans" font-size="13.00">B: Offers / Orders</text>
</g>
<!-- Seller B&#45;&gt;B: Offers / Orders -->
<g id="edge6" class="edge">
<title>Seller B&#45;&gt;B: Offers / Orders</title>
<path fill="none" stroke="#6287a3" stroke-width="1.5" d="M361.55,-101C403.62,-101 465.5,-101 465.5,-101 465.5,-101 465.5,-43.01 465.5,-43.01"/>
<polygon fill="#6287a3" stroke="#6287a3" stroke-width="1.5" points="467.95,-43.01 465.5,-36.01 463.05,-43.01 467.95,-43.01"/>
</g>
</g>
</svg>
